<?xml version="1.0" standalone="no"?>
<!DOCTYPE svg PUBLIC "-//W3C//DTD SVG 20010904//EN"
 "http://www.w3.org/TR/2001/REC-SVG-20010904/DTD/svg10.dtd">
<svg version="1.0" xmlns="http://www.w3.org/2000/svg"
 width="512.000000pt" height="512.000000pt" viewBox="0 0 512.000000 512.000000"
 preserveAspectRatio="xMidYMid meet">

<g transform="translate(0.000000,512.000000) scale(0.100000,-0.100000)"
fill="#000000" stroke="none">
<path d="M1028 5109 c-119 -28 -229 -120 -287 -239 l-36 -75 -3 -210 -3 -210
-350 -350 -349 -351 0 -385 c0 -418 4 -453 57 -551 35 -64 120 -143 189 -175
166 -76 350 -45 482 81 l58 56 45 -46 c170 -175 444 -177 614 -4 l48 49 61
-56 c176 -163 423 -162 594 1 l58 55 50 -50 c165 -168 438 -169 601 -2 l57 58
56 -56 c107 -106 246 -148 392 -115 88 20 176 71 228 133 l33 39 56 -56 c168
-168 435 -168 601 -1 l55 56 51 -52 c52 -53 117 -91 192 -113 l42 -13 0 -1067
c0 -917 -2 -1073 -15 -1117 -20 -66 -80 -134 -147 -164 l-53 -24 -1252 -3
-1253 -2 0 987 0 988 -24 50 c-28 60 -66 97 -126 124 -43 20 -64 21 -450 21
-404 0 -405 0 -455 -24 -56 -26 -98 -70 -126 -131 -18 -38 -19 -93 -19 -1023
l0 -982 -37 15 c-21 8 -59 37 -84 64 -84 89 -79 23 -79 1088 l0 944 -25 24
c-31 32 -69 32 -101 0 l-24 -25 2 -972 3 -973 36 -75 c59 -122 155 -202 284
-236 74 -20 3696 -20 3770 0 155 41 270 156 311 311 11 40 14 260 14 1127 l0
1076 33 7 c91 20 211 114 260 203 53 98 57 133 57 551 l0 385 -350 351 -350
350 0 185 c0 123 -5 202 -14 235 -34 129 -114 225 -236 284 l-75 36 -973 3
-972 2 -25 -24 c-32 -32 -32 -70 0 -101 l24 -25 939 0 c1075 0 1010 5 1098
-84 83 -82 84 -91 84 -541 0 -450 -1 -457 -84 -541 -92 -91 43 -84 -1626 -84
-1668 0 -1536 -7 -1626 84 -83 82 -84 90 -84 547 0 445 2 457 83 537 82 80 93
82 533 82 l385 0 24 25 c14 13 25 36 25 50 0 14 -11 37 -25 50 l-24 25 -393
-1 c-216 -1 -410 -5 -430 -10z m-303 -1259 c10 -25 31 -64 46 -87 l28 -43
-272 0 -272 0 220 220 220 220 6 -132 c4 -94 11 -146 24 -178z m3920 90 l220
-220 -272 0 -272 0 28 43 c53 80 64 122 69 265 2 72 5 132 6 132 1 0 100 -99
221 -220z m325 -470 l0 -100 -2410 0 -2410 0 0 100 0 100 2410 0 2410 0 0
-100z m-4262 -422 c-3 -154 -6 -178 -25 -214 -34 -64 -71 -103 -127 -131 -42
-22 -64 -27 -126 -27 -113 0 -190 46 -245 146 -29 52 -30 56 -33 226 l-4 172
282 0 282 0 -4 -172z m710 0 c-3 -154 -6 -178 -25 -214 -34 -64 -71 -103 -127
-131 -42 -22 -64 -27 -126 -27 -113 0 -190 46 -245 146 -29 52 -30 56 -33 226
l-4 172 282 0 282 0 -4 -172z m710 0 c-3 -154 -6 -178 -25 -214 -34 -64 -71
-103 -127 -131 -42 -22 -64 -27 -126 -27 -113 0 -190 46 -245 146 -29 52 -30
56 -33 226 l-4 172 282 0 282 0 -4 -172z m710 0 c-3 -154 -6 -178 -25 -214
-34 -64 -71 -103 -127 -131 -42 -22 -64 -27 -126 -27 -113 0 -190 46 -245 146
-29 52 -30 56 -33 226 l-4 172 282 0 282 0 -4 -172z m710 0 c-3 -154 -6 -178
-25 -214 -34 -64 -71 -103 -127 -131 -42 -22 -64 -27 -126 -27 -113 0 -190 46
-245 146 -29 52 -30 56 -33 226 l-4 172 282 0 282 0 -4 -172z m710 0 c-3 -154
-6 -178 -25 -214 -34 -64 -71 -103 -127 -131 -42 -22 -64 -27 -126 -27 -113 0
-190 46 -245 146 -29 52 -30 56 -33 226 l-4 172 282 0 282 0 -4 -172z m710 0
c-3 -154 -6 -178 -25 -214 -34 -64 -71 -103 -127 -131 -42 -22 -64 -27 -126
-27 -113 0 -190 46 -245 146 -29 52 -30 56 -33 226 l-4 172 282 0 282 0 -4
-172z m-3748 -1098 l0 -220 -185 0 -185 0 0 186 0 186 34 34 34 34 151 0 151
0 0 -220z m496 186 l34 -34 0 -186 0 -186 -185 0 -185 0 0 220 0 220 151 0
151 0 34 -34z m-496 -751 l0 -185 -185 0 -185 0 0 185 0 185 185 0 185 0 0
-185z m530 0 l0 -185 -185 0 -185 0 0 185 0 185 185 0 185 0 0 -185z m0 -785
l0 -450 -450 0 -450 0 0 450 0 450 450 0 450 0 0 -450z"/>
<path d="M1459 4756 c-60 -21 -105 -54 -133 -96 -100 -151 -21 -341 160 -389
51 -14 74 -39 81 -89 4 -33 1 -44 -24 -72 -24 -27 -37 -33 -70 -33 -22 0 -51
8 -64 17 -33 23 -66 20 -94 -9 -69 -68 19 -158 155 -159 184 0 303 184 226
350 -20 44 -96 124 -117 124 -5 0 -33 9 -64 21 -64 24 -91 61 -81 114 16 85
128 110 185 41 34 -41 121 3 121 60 0 39 -67 99 -132 119 -62 18 -101 18 -149
1z"/>
<path d="M1966 4749 l-26 -20 0 -384 0 -384 26 -20 c35 -28 69 -26 99 4 24 23
25 28 25 175 l0 150 100 0 100 0 0 -154 0 -155 26 -20 c35 -28 69 -26 99 4
l25 24 0 376 0 376 -25 24 c-30 30 -64 32 -99 4 l-26 -20 0 -155 0 -154 -100
0 -100 0 0 150 c0 147 -1 152 -25 175 -30 30 -64 32 -99 4z"/>
<path d="M2820 4761 c-74 -23 -127 -69 -159 -141 -19 -41 -21 -65 -21 -275 0
-210 2 -234 21 -275 39 -87 110 -137 204 -147 100 -10 190 38 241 129 l29 53
0 240 0 240 -29 53 c-33 59 -76 96 -137 117 -44 16 -108 18 -149 6z m132 -170
l33 -29 0 -217 0 -217 -33 -29 c-47 -42 -103 -36 -144 15 -15 18 -18 47 -18
231 0 184 3 213 18 231 42 52 97 57 144 15z"/>
<path d="M3366 4749 l-26 -20 0 -384 0 -384 26 -20 c35 -28 69 -26 99 4 24 23
25 28 25 175 l0 150 69 0 c120 0 196 41 247 132 73 134 8 302 -137 353 -27 10
-82 15 -159 15 -104 0 -120 -2 -144 -21z m286 -158 c27 -24 33 -36 33 -71 0
-35 -6 -47 -33 -71 -29 -26 -40 -29 -97 -29 l-65 0 0 100 0 100 65 0 c57 0 68
-3 97 -29z"/>
<path d="M2267 2306 c-55 -20 -103 -61 -134 -114 l-28 -47 0 -600 0 -600 28
-47 c31 -53 79 -94 134 -114 30 -10 177 -13 721 -14 l683 0 24 25 c32 31 32
69 0 100 l-24 25 -677 0 -676 0 -34 34 -34 34 0 557 0 557 34 34 34 34 942 0
942 0 34 -34 34 -34 0 -557 0 -557 -34 -34 -34 -34 -116 0 c-111 0 -118 -1
-141 -25 -32 -31 -32 -69 0 -101 26 -26 27 -26 163 -22 129 3 140 5 185 31 55
32 102 92 117 148 7 25 10 243 8 616 l-3 578 -28 47 c-31 53 -79 94 -134 114
-56 19 -1930 19 -1986 0z"/>
<path d="M3198 1959 c-65 -15 -151 -65 -204 -118 -206 -206 -144 -550 122
-678 214 -102 457 -13 563 207 34 71 36 81 36 175 0 94 -2 104 -36 176 -89
185 -287 284 -481 238z m196 -159 c99 -38 176 -149 176 -255 0 -63 -30 -136
-77 -186 -107 -114 -278 -117 -390 -7 -109 106 -109 280 0 386 79 78 186 101
291 62z"/>
</g>
</svg>
